<svg width="24" height="12" viewBox="0 0 24 12" fill="none" xmlns="http://www.w3.org/2000/svg">
<path fill-rule="evenodd" clip-rule="evenodd" d="M0 0.914899H6.19934C6.88366 0.893388 7.56392 1.0263 8.18807 1.30347C8.81221 1.58065 9.36371 1.99473 9.80037 2.51405C10.8033 3.63053 11.1679 5.01132 11.1679 6.45695C11.1679 7.90259 10.8031 9.30463 9.80037 10.4218C9.35293 10.927 8.79885 11.3299 8.17686 11.6023C7.55488 11.8747 6.87998 12.0101 6.19934 11.999H0V9.01971H6.19934C6.8602 9.01971 7.43014 8.82261 7.79469 8.34059C8.19617 7.79449 8.39708 7.13016 8.36441 6.45674C8.38698 5.79136 8.1868 5.13712 7.79469 4.59479C7.60578 4.36003 7.36207 4.17369 7.0843 4.05163C6.80654 3.92958 6.50293 3.87542 6.19934 3.89376H0V0.914899Z" fill="#FE4E30"/>
<path d="M16.9686 0.912232H19.5669V6.17602H16.9686V0.912232Z" fill="#FE4E30"/>
<path fill-rule="evenodd" clip-rule="evenodd" d="M24 0.912231V7.0589C24 8.53417 23.4985 9.74104 22.3362 10.6574C21.1929 11.5563 19.7652 12.0309 18.3026 11.9985C16.7763 11.9985 15.3624 11.6408 14.2001 10.6574C13.6683 10.2173 13.243 9.66589 12.9551 9.04335C12.6673 8.4208 12.5242 7.74284 12.5363 7.0589V0.912231H15.5669V7.0589C15.5458 7.38507 15.6078 7.71127 15.7471 8.00791C15.8864 8.30455 16.0987 8.56226 16.3647 8.75768C16.8662 9.18237 17.5955 9.31592 18.3019 9.31592C18.9988 9.33895 19.6852 9.14347 20.262 8.75768C20.8318 8.33298 21.0369 7.77431 21.0369 7.0589V0.912231H24Z" fill="#FE4E30"/>
</svg>
